<svg xmlns="http://www.w3.org/2000/svg" viewBox="0 0 560 360" fill="none" role="img" aria-label="Consolidated billing and subscriptions">
  <rect width="560" height="360" fill="#f8fafc"/>
  <rect x="72" y="64" width="416" height="200" rx="16" fill="#fff" stroke="#334155" stroke-width="1.75"/>
  <text x="96" y="96" fill="#64748b" font-family="ui-monospace,monospace" font-size="11" font-weight="500">BILLING ACCOUNT</text>
  <rect x="96" y="108" width="140" height="56" rx="10" fill="#f1f5f9" stroke="#cbd5e1"/>
  <text x="108" y="128" fill="#64748b" font-family="ui-sans-serif,system-ui,sans-serif" font-size="10">Subscriptions</text>
  <text x="108" y="150" fill="#0f172a" font-family="ui-sans-serif,system-ui,sans-serif" font-size="18" font-weight="600">12 active</text>
  <rect x="252" y="108" width="140" height="56" rx="10" fill="#f1f5f9" stroke="#cbd5e1"/>
  <text x="264" y="128" fill="#64748b" font-family="ui-sans-serif,system-ui,sans-serif" font-size="10">Credits</text>
  <text x="264" y="150" fill="#0f172a" font-family="ui-sans-serif,system-ui,sans-serif" font-size="18" font-weight="600">48,200</text>
  <rect x="408" y="108" width="56" height="56" rx="10" fill="#5ee7ff" fill-opacity="0.2" stroke="#0891b2" stroke-width="1.5"/>
  <path d="M424 128h24M424 136h16M424 144h20" stroke="#0891b2" stroke-width="1.5" stroke-linecap="round"/>
  <line x1="96" y1="180" x2="464" y2="180" stroke="#e2e8f0" stroke-width="1.5"/>
  <rect x="96" y="196" width="368" height="12" rx="3" fill="#e2e8f0"/>
  <rect x="96" y="196" width="248" height="12" rx="3" fill="#334155" fill-opacity="0.85"/>
  <rect x="96" y="220" width="280" height="8" rx="2" fill="#f1f5f9"/>
  <rect x="96" y="236" width="220" height="8" rx="2" fill="#f1f5f9"/>
  <g transform="translate(96 268)">
    <rect width="72" height="44" rx="8" fill="#fff" stroke="#334155" stroke-width="1.25"/>
    <rect x="10" y="12" width="52" height="6" rx="2" fill="#cbd5e1"/>
    <rect x="10" y="24" width="32" height="5" rx="2" fill="#e2e8f0"/>
  </g>
  <g transform="translate(184 268)">
    <rect width="72" height="44" rx="8" fill="#fff" stroke="#334155" stroke-width="1.25"/>
    <rect x="10" y="12" width="52" height="6" rx="2" fill="#cbd5e1"/>
    <rect x="10" y="24" width="32" height="5" rx="2" fill="#e2e8f0"/>
  </g>
  <g transform="translate(272 268)">
    <rect width="72" height="44" rx="8" fill="#fff" stroke="#334155" stroke-width="1.25"/>
    <rect x="10" y="12" width="52" height="6" rx="2" fill="#cbd5e1"/>
    <rect x="10" y="24" width="32" height="5" rx="2" fill="#e2e8f0"/>
  </g>
  <path d="M360 290h88" stroke="#0891b2" stroke-width="1.5" stroke-linecap="round" stroke-dasharray="4 4"/>
  <rect x="448" y="268" width="96" height="44" rx="8" fill="#334155"/>
  <text x="496" y="286" text-anchor="middle" fill="#f8fafc" font-family="ui-sans-serif,system-ui,sans-serif" font-size="10" font-weight="600">One invoice</text>
  <text x="496" y="302" text-anchor="middle" fill="#94a3b8" font-family="ui-sans-serif,system-ui,sans-serif" font-size="9">Finance view</text>
  <text x="280" y="318" text-anchor="middle" fill="#475569" font-family="ui-sans-serif,system-ui,sans-serif" font-size="13" font-weight="500">Single account · full picture</text>
</svg>
