<svg xmlns="http://www.w3.org/2000/svg" viewBox="0 0 560 360" fill="none" role="img" aria-label="Unified records synced across modules">
  <rect width="560" height="360" fill="#f8fafc"/>
  <g transform="translate(196 88)">
    <ellipse cx="84" cy="118" rx="68" ry="16" fill="#e2e8f0" stroke="#334155" stroke-width="1.5"/>
    <path d="M16 118v-56c0-8 30-14 68-14s68 6 68 14v112c0 8-30 14-68 14s-68-6-68-14V118" fill="#fff" stroke="#334155" stroke-width="1.75"/>
    <ellipse cx="84" cy="62" rx="68" ry="16" fill="#fff" stroke="#334155" stroke-width="1.5"/>
    <ellipse cx="84" cy="90" rx="68" ry="16" fill="none" stroke="#cbd5e1" stroke-width="1.25"/>
    <rect x="52" y="72" width="64" height="10" rx="3" fill="#5ee7ff" fill-opacity="0.35"/>
    <text x="84" y="80" text-anchor="middle" fill="#0f172a" font-family="ui-sans-serif,system-ui,sans-serif" font-size="10" font-weight="600">Core record</text>
  </g>
  <g stroke="#0891b2" stroke-width="1.5" stroke-linecap="round">
    <path d="M196 150 H128 M196 170 H128 M364 150 H432 M364 170 H432 M280 206 V248"/>
    <path d="M120 142 l8 8-8 8M440 142 l-8 8 8 8M272 248 l8 8 8-8" fill="none"/>
  </g>
  <g transform="translate(56 124)">
    <rect width="112" height="88" rx="12" fill="#fff" stroke="#334155" stroke-width="1.5"/>
    <circle cx="28" cy="28" r="12" fill="#e2e8f0"/>
    <rect x="48" y="18" width="48" height="7" rx="2" fill="#f1f5f9"/>
    <rect x="48" y="30" width="36" height="6" rx="2" fill="#f1f5f9"/>
    <rect x="16" y="52" width="80" height="22" rx="6" fill="#f8fafc" stroke="#e2e8f0"/>
    <text x="56" y="78" text-anchor="middle" fill="#64748b" font-family="ui-sans-serif,system-ui,sans-serif" font-size="10" font-weight="600">Customer</text>
  </g>
  <g transform="translate(392 124)">
    <rect width="112" height="88" rx="12" fill="#fff" stroke="#334155" stroke-width="1.5"/>
    <circle cx="28" cy="28" r="12" fill="#e2e8f0"/>
    <rect x="48" y="18" width="48" height="7" rx="2" fill="#f1f5f9"/>
    <rect x="48" y="30" width="36" height="6" rx="2" fill="#f1f5f9"/>
    <rect x="16" y="52" width="80" height="22" rx="6" fill="#f8fafc" stroke="#e2e8f0"/>
    <text x="56" y="78" text-anchor="middle" fill="#64748b" font-family="ui-sans-serif,system-ui,sans-serif" font-size="10" font-weight="600">Vendor</text>
  </g>
  <g transform="translate(224 248)">
    <rect width="112" height="88" rx="12" fill="#fff" stroke="#334155" stroke-width="1.5"/>
    <circle cx="28" cy="28" r="12" fill="#e2e8f0"/>
    <rect x="48" y="18" width="48" height="7" rx="2" fill="#f1f5f9"/>
    <rect x="48" y="30" width="36" height="6" rx="2" fill="#f1f5f9"/>
    <rect x="16" y="52" width="80" height="22" rx="6" fill="#f8fafc" stroke="#e2e8f0"/>
    <text x="56" y="78" text-anchor="middle" fill="#64748b" font-family="ui-sans-serif,system-ui,sans-serif" font-size="10" font-weight="600">Employee</text>
  </g>
  <text x="280" y="338" text-anchor="middle" fill="#475569" font-family="ui-sans-serif,system-ui,sans-serif" font-size="13" font-weight="500">Same data · every module</text>
</svg>
