<svg xmlns="http://www.w3.org/2000/svg" viewBox="0 0 560 360" fill="none" role="img" aria-label="One login connected to every module">
  <rect width="560" height="360" fill="#f8fafc"/>
  <g stroke="#cbd5e1" stroke-width="1.5" stroke-linecap="round">
    <path d="M280 118 L180 168 M280 118 L280 198 M280 118 L380 168"/>
  </g>
  <g transform="translate(232 56)">
    <circle cx="48" cy="36" r="28" fill="#fff" stroke="#334155" stroke-width="1.75"/>
    <circle cx="48" cy="28" r="10" fill="#e2e8f0" stroke="#334155" stroke-width="1.5"/>
    <path d="M24 58c4-12 16-18 24-18s20 6 24 18" fill="#e2e8f0" stroke="#334155" stroke-width="1.5"/>
    <rect x="68" y="8" width="22" height="26" rx="6" fill="#5ee7ff" fill-opacity="0.25" stroke="#0891b2" stroke-width="1.5"/>
    <path d="M74 18h10M74 24h7" stroke="#0891b2" stroke-width="1.5" stroke-linecap="round"/>
  </g>
  <g transform="translate(128 168)">
    <rect width="104" height="72" rx="12" fill="#fff" stroke="#334155" stroke-width="1.5"/>
    <rect x="14" y="16" width="36" height="8" rx="2" fill="#e2e8f0"/>
    <rect x="14" y="32" width="76" height="6" rx="2" fill="#f1f5f9"/>
    <rect x="14" y="44" width="56" height="6" rx="2" fill="#f1f5f9"/>
    <text x="52" y="62" text-anchor="middle" fill="#64748b" font-family="ui-sans-serif,system-ui,sans-serif" font-size="11" font-weight="600">CRM</text>
  </g>
  <g transform="translate(228 208)">
    <rect width="104" height="72" rx="12" fill="#fff" stroke="#334155" stroke-width="1.5"/>
    <rect x="14" y="16" width="36" height="8" rx="2" fill="#e2e8f0"/>
    <rect x="14" y="32" width="76" height="6" rx="2" fill="#f1f5f9"/>
    <rect x="14" y="44" width="56" height="6" rx="2" fill="#f1f5f9"/>
    <text x="52" y="62" text-anchor="middle" fill="#64748b" font-family="ui-sans-serif,system-ui,sans-serif" font-size="11" font-weight="600">HRMS</text>
  </g>
  <g transform="translate(328 168)">
    <rect width="104" height="72" rx="12" fill="#fff" stroke="#334155" stroke-width="1.5"/>
    <rect x="14" y="16" width="36" height="8" rx="2" fill="#e2e8f0"/>
    <rect x="14" y="32" width="76" height="6" rx="2" fill="#f1f5f9"/>
    <rect x="14" y="44" width="56" height="6" rx="2" fill="#f1f5f9"/>
    <text x="52" y="62" text-anchor="middle" fill="#64748b" font-family="ui-sans-serif,system-ui,sans-serif" font-size="11" font-weight="600">Finance</text>
  </g>
  <text x="280" y="318" text-anchor="middle" fill="#475569" font-family="ui-sans-serif,system-ui,sans-serif" font-size="13" font-weight="500">One login · one role model</text>
</svg>
