<svg xmlns="http://www.w3.org/2000/svg" viewBox="0 0 1600 952" width="1600" height="952">
<defs>
  <linearGradient id="bgGrad" x1="0" y1="0" x2="0" y2="1">
    <stop offset="0%" stop-color="#06091a"/>
    <stop offset="50%" stop-color="#0d1f45"/>
    <stop offset="100%" stop-color="#06091a"/>
  </linearGradient>
  <linearGradient id="accentGrad" x1="0" y1="0" x2="1" y2="0">
    <stop offset="0%" stop-color="#c084fc"/>
    <stop offset="100%" stop-color="#f472b6"/>
  </linearGradient>
</defs>

<!-- Background -->
<rect width="1600" height="952" fill="url(#bgGrad)"/>

<!-- ── Browser chrome ── -->
<circle cx="60" cy="32" r="6" fill="#ff5f57"/>
<circle cx="82" cy="32" r="6" fill="#febc2e"/>
<circle cx="104" cy="32" r="6" fill="#28c840"/>
<rect x="550" y="20" width="500" height="24" rx="12" fill="#1f2937"/>
<text x="800" y="36" text-anchor="middle" font-family="Arial,Helvetica,sans-serif" font-size="12" fill="#9ca3af">app.zopkit.com/dashboard</text>

<!-- ── Title block ── -->
<text x="290" y="122" font-family="Georgia,serif" font-size="28" fill="#ffffff" font-weight="600">Your CFO Command Center</text>
<text x="290" y="148" font-family="Arial,Helvetica,sans-serif" font-size="14" fill="#9ca3af">Real-time financial intelligence — receivables, ratios &amp; cash flows, all in one place.</text>

<!-- ── Sidebar ── -->
<rect x="40" y="180" width="220" height="720" rx="12" fill="#0b1228"/>
<!-- Sidebar separator line -->
<line x1="40" y1="230" x2="260" y2="230" stroke="#1e2d50" stroke-width="1"/>
<text x="60" y="216" font-family="Arial,Helvetica,sans-serif" font-size="10" fill="#6b7280" font-weight="700" letter-spacing="0.08em">FINANCEACCOUNTING</text>
<!-- Nav items -->
<text x="60" y="258" font-family="Arial,Helvetica,sans-serif" font-size="13" fill="#9ca3af">Dashboard</text>
<text x="60" y="288" font-family="Arial,Helvetica,sans-serif" font-size="13" fill="#6b7280">Accounts Payable</text>
<text x="60" y="318" font-family="Arial,Helvetica,sans-serif" font-size="13" fill="#6b7280">Accounts Receivable</text>
<!-- Banking &amp; Cash — highlighted -->
<rect x="48" y="327" width="204" height="28" rx="6" fill="#c084fc" fill-opacity="0.18"/>
<rect x="48" y="327" width="4" height="28" rx="2" fill="#c084fc"/>
<text x="62" y="346" font-family="Arial,Helvetica,sans-serif" font-size="13" fill="#c084fc" font-weight="600">Banking &amp; Cash</text>
<text x="60" y="378" font-family="Arial,Helvetica,sans-serif" font-size="13" fill="#6b7280">General Ledger</text>
<text x="60" y="408" font-family="Arial,Helvetica,sans-serif" font-size="13" fill="#6b7280">Budgeting</text>
<text x="60" y="438" font-family="Arial,Helvetica,sans-serif" font-size="13" fill="#6b7280">Tax Management</text>
<text x="60" y="468" font-family="Arial,Helvetica,sans-serif" font-size="13" fill="#6b7280">Reports</text>
<!-- Bottom nav -->
<line x1="40" y1="845" x2="260" y2="845" stroke="#1e2d50" stroke-width="1"/>
<text x="60" y="864" font-family="Arial,Helvetica,sans-serif" font-size="13" fill="#6b7280">Settings</text>
<text x="60" y="892" font-family="Arial,Helvetica,sans-serif" font-size="13" fill="#6b7280">Help &amp; Support</text>

<!-- ── Date filter pill ── -->
<rect x="1355" y="183" width="210" height="28" rx="14" fill="#111827" stroke="#374151" stroke-width="1"/>
<text x="1460" y="201" text-anchor="middle" font-family="Arial,Helvetica,sans-serif" font-size="12" fill="#d1d5db">Apr 1, 2026 → Apr 30, 2026</text>

<!-- ── KPI Cards ── -->
<!-- Card 1: Bank Accounts Linked (x=290) -->
<rect x="290" y="240" width="250" height="110" rx="10" fill="#0f1729" stroke="#1e2d50" stroke-width="1"/>
<text x="308" y="266" font-family="Arial,Helvetica,sans-serif" font-size="11" fill="#6b7280">Bank Accounts Linked</text>
<text x="308" y="302" font-family="Arial,Helvetica,sans-serif" font-size="34" fill="#ffffff" font-weight="700">12</text>
<text x="308" y="332" font-family="Arial,Helvetica,sans-serif" font-size="11" fill="#6b7280">Plaid + Yodlee</text>
<polyline points="430,328 445,318 460,324 476,310 492,300 508,306 524,292" fill="none" stroke="#a855f7" stroke-width="1.5" stroke-linecap="round" stroke-linejoin="round"/>

<!-- Card 2: Transactions Synced (x=558) -->
<rect x="558" y="240" width="250" height="110" rx="10" fill="#0f1729" stroke="#1e2d50" stroke-width="1"/>
<text x="576" y="266" font-family="Arial,Helvetica,sans-serif" font-size="11" fill="#6b7280">Transactions Synced (30d)</text>
<text x="576" y="302" font-family="Arial,Helvetica,sans-serif" font-size="34" fill="#ffffff" font-weight="700">3,418</text>
<text x="576" y="332" font-family="Arial,Helvetica,sans-serif" font-size="11" fill="#10b981">+5.2% vs prev</text>
<polyline points="698,328 713,320 728,325 744,312 760,304 776,310 792,296" fill="none" stroke="#ec4899" stroke-width="1.5" stroke-linecap="round" stroke-linejoin="round"/>

<!-- Card 3: Auto-matched % (x=826) -->
<rect x="826" y="240" width="250" height="110" rx="10" fill="#0f1729" stroke="#1e2d50" stroke-width="1"/>
<text x="844" y="266" font-family="Arial,Helvetica,sans-serif" font-size="11" fill="#6b7280">Auto-matched %</text>
<text x="844" y="302" font-family="Arial,Helvetica,sans-serif" font-size="34" fill="#ffffff" font-weight="700">94.6%</text>
<text x="844" y="325" font-family="Arial,Helvetica,sans-serif" font-size="11" fill="#6b7280">Target 95%</text>
<!-- Progress bar -->
<rect x="844" y="334" width="214" height="6" rx="3" fill="#1e2d50"/>
<rect x="844" y="334" width="203" height="6" rx="3" fill="url(#accentGrad)"/>

<!-- Card 4: Pending Review (x=1094) -->
<rect x="1094" y="240" width="250" height="110" rx="10" fill="#0f1729" stroke="#1e2d50" stroke-width="1"/>
<text x="1112" y="266" font-family="Arial,Helvetica,sans-serif" font-size="11" fill="#6b7280">Pending Review</text>
<text x="1112" y="302" font-family="Arial,Helvetica,sans-serif" font-size="34" fill="#ffffff" font-weight="700">182</text>
<text x="1112" y="332" font-family="Arial,Helvetica,sans-serif" font-size="11" fill="#ef4444">−40 vs last week</text>
<polyline points="1232,298 1248,302 1264,308 1280,313 1296,318 1312,322 1328,328" fill="none" stroke="#ec4899" stroke-width="1.5" stroke-linecap="round" stroke-linejoin="round"/>

<!-- ══ Main chart panel ══ -->
<rect x="290" y="380" width="830" height="320" rx="10" fill="#0f1729" stroke="#1e2d50" stroke-width="1"/>
<text x="310" y="410" font-family="Arial,Helvetica,sans-serif" font-size="14" fill="#ffffff" font-weight="600">Daily Cash Position — last 30 days</text>
<!-- Legend -->
<circle cx="866" cy="406" r="5" fill="#a855f7"/>
<text x="876" y="411" font-family="Arial,Helvetica,sans-serif" font-size="11" fill="#9ca3af">Bank Balance</text>
<circle cx="966" cy="406" r="5" fill="#ec4899"/>
<text x="976" y="411" font-family="Arial,Helvetica,sans-serif" font-size="11" fill="#9ca3af">Book Balance</text>

<!-- Chart inner background -->
<rect x="332" y="424" width="768" height="248" rx="4" fill="#080e1e"/>

<!-- Y-axis grid lines -->
<line x1="332" y1="485" x2="1100" y2="485" stroke="#1e2d50" stroke-width="1" stroke-dasharray="4,4"/>
<line x1="332" y1="547" x2="1100" y2="547" stroke="#1e2d50" stroke-width="1" stroke-dasharray="4,4"/>
<line x1="332" y1="609" x2="1100" y2="609" stroke="#1e2d50" stroke-width="1" stroke-dasharray="4,4"/>
<line x1="332" y1="671" x2="1100" y2="671" stroke="#1e2d50" stroke-width="1" stroke-dasharray="4,4"/>

<!-- Y-axis labels -->
<text x="328" y="490" text-anchor="end" font-family="Arial,Helvetica,sans-serif" font-size="10" fill="#6b7280">₹60L</text>
<text x="328" y="552" text-anchor="end" font-family="Arial,Helvetica,sans-serif" font-size="10" fill="#6b7280">₹50L</text>
<text x="328" y="614" text-anchor="end" font-family="Arial,Helvetica,sans-serif" font-size="10" fill="#6b7280">₹40L</text>
<text x="328" y="676" text-anchor="end" font-family="Arial,Helvetica,sans-serif" font-size="10" fill="#6b7280">₹30L</text>

<!-- Shaded area between Bank Balance and Book Balance lines -->
<polygon points="340,510 425,496 511,518 596,486 682,504 767,478 853,494 939,466 1024,482 1100,458 1100,474 1024,499 939,484 853,511 767,495 682,521 596,504 511,536 425,513 340,528" fill="#a855f7" fill-opacity="0.08"/>

<!-- Bank Balance line (purple) -->
<polyline points="340,510 425,496 511,518 596,486 682,504 767,478 853,494 939,466 1024,482 1100,458" fill="none" stroke="#a855f7" stroke-width="2" stroke-linecap="round" stroke-linejoin="round"/>
<!-- Data point dots -->
<circle cx="340" cy="510" r="3" fill="#a855f7"/>
<circle cx="425" cy="496" r="3" fill="#a855f7"/>
<circle cx="511" cy="518" r="3" fill="#a855f7"/>
<circle cx="596" cy="486" r="3" fill="#a855f7"/>
<circle cx="682" cy="504" r="3" fill="#a855f7"/>
<circle cx="767" cy="478" r="3" fill="#a855f7"/>
<circle cx="853" cy="494" r="3" fill="#a855f7"/>
<circle cx="939" cy="466" r="3" fill="#a855f7"/>
<circle cx="1024" cy="482" r="3" fill="#a855f7"/>
<circle cx="1100" cy="458" r="3" fill="#a855f7"/>

<!-- Book Balance line (pink) -->
<polyline points="340,528 425,513 511,536 596,504 682,521 767,495 853,511 939,484 1024,499 1100,474" fill="none" stroke="#ec4899" stroke-width="2" stroke-linecap="round" stroke-linejoin="round"/>
<!-- Data point dots -->
<circle cx="340" cy="528" r="3" fill="#ec4899"/>
<circle cx="425" cy="513" r="3" fill="#ec4899"/>
<circle cx="511" cy="536" r="3" fill="#ec4899"/>
<circle cx="596" cy="504" r="3" fill="#ec4899"/>
<circle cx="682" cy="521" r="3" fill="#ec4899"/>
<circle cx="767" cy="495" r="3" fill="#ec4899"/>
<circle cx="853" cy="511" r="3" fill="#ec4899"/>
<circle cx="939" cy="484" r="3" fill="#ec4899"/>
<circle cx="1024" cy="499" r="3" fill="#ec4899"/>
<circle cx="1100" cy="474" r="3" fill="#ec4899"/>

<!-- X-axis labels -->
<text x="340" y="686" text-anchor="middle" font-family="Arial,Helvetica,sans-serif" font-size="10" fill="#6b7280">Apr 1</text>
<text x="511" y="686" text-anchor="middle" font-family="Arial,Helvetica,sans-serif" font-size="10" fill="#6b7280">Apr 8</text>
<text x="682" y="686" text-anchor="middle" font-family="Arial,Helvetica,sans-serif" font-size="10" fill="#6b7280">Apr 15</text>
<text x="853" y="686" text-anchor="middle" font-family="Arial,Helvetica,sans-serif" font-size="10" fill="#6b7280">Apr 22</text>
<text x="1024" y="686" text-anchor="middle" font-family="Arial,Helvetica,sans-serif" font-size="10" fill="#6b7280">Apr 29</text>

<!-- ══ Right panel: Recent Bank Feeds ══ -->
<rect x="1140" y="380" width="420" height="320" rx="10" fill="#0f1729" stroke="#1e2d50" stroke-width="1"/>
<text x="1160" y="410" font-family="Arial,Helvetica,sans-serif" font-size="14" fill="#ffffff" font-weight="600">Recent Bank Feeds</text>
<!-- Refresh icon placeholder -->
<text x="1540" y="410" text-anchor="end" font-family="Arial,Helvetica,sans-serif" font-size="11" fill="#a855f7">↻ Refresh</text>

<!-- HDFC -->
<circle cx="1162" cy="445" r="5" fill="#10b981"/>
<text x="1178" y="441" font-family="Arial,Helvetica,sans-serif" font-size="13" fill="#d1d5db" font-weight="600">HDFC Bank</text>
<text x="1178" y="458" font-family="Arial,Helvetica,sans-serif" font-size="11" fill="#6b7280">₹48.2L synced</text>
<text x="1538" y="445" text-anchor="end" font-family="Arial,Helvetica,sans-serif" font-size="11" fill="#6b7280">2 min ago</text>
<line x1="1160" y1="470" x2="1540" y2="470" stroke="#1e2d50" stroke-width="1"/>

<!-- ICICI -->
<circle cx="1162" cy="490" r="5" fill="#10b981"/>
<text x="1178" y="486" font-family="Arial,Helvetica,sans-serif" font-size="13" fill="#d1d5db" font-weight="600">ICICI Bank</text>
<text x="1178" y="503" font-family="Arial,Helvetica,sans-serif" font-size="11" fill="#6b7280">₹31.7L synced</text>
<text x="1538" y="490" text-anchor="end" font-family="Arial,Helvetica,sans-serif" font-size="11" fill="#6b7280">5 min ago</text>
<line x1="1160" y1="515" x2="1540" y2="515" stroke="#1e2d50" stroke-width="1"/>

<!-- Axis Bank -->
<circle cx="1162" cy="535" r="5" fill="#10b981"/>
<text x="1178" y="531" font-family="Arial,Helvetica,sans-serif" font-size="13" fill="#d1d5db" font-weight="600">Axis Bank</text>
<text x="1178" y="548" font-family="Arial,Helvetica,sans-serif" font-size="11" fill="#6b7280">₹18.4L synced</text>
<text x="1538" y="535" text-anchor="end" font-family="Arial,Helvetica,sans-serif" font-size="11" fill="#6b7280">12 min ago</text>
<line x1="1160" y1="560" x2="1540" y2="560" stroke="#1e2d50" stroke-width="1"/>

<!-- SBI -->
<circle cx="1162" cy="580" r="5" fill="#ef4444"/>
<text x="1178" y="576" font-family="Arial,Helvetica,sans-serif" font-size="13" fill="#d1d5db" font-weight="600">SBI</text>
<text x="1178" y="593" font-family="Arial,Helvetica,sans-serif" font-size="11" fill="#ef4444">Sync failed</text>
<text x="1538" y="580" text-anchor="end" font-family="Arial,Helvetica,sans-serif" font-size="11" fill="#6b7280">1 hr ago</text>
<line x1="1160" y1="605" x2="1540" y2="605" stroke="#1e2d50" stroke-width="1"/>

<!-- Yes Bank -->
<circle cx="1162" cy="625" r="5" fill="#ef4444"/>
<text x="1178" y="621" font-family="Arial,Helvetica,sans-serif" font-size="13" fill="#d1d5db" font-weight="600">Yes Bank</text>
<text x="1178" y="638" font-family="Arial,Helvetica,sans-serif" font-size="11" fill="#ef4444">Auth expired</text>
<text x="1538" y="625" text-anchor="end" font-family="Arial,Helvetica,sans-serif" font-size="11" fill="#6b7280">2 hr ago</text>

<!-- View all link -->
<text x="1160" y="684" font-family="Arial,Helvetica,sans-serif" font-size="12" fill="#a855f7">View all feeds →</text>

<!-- ══ Bottom Row: Three panels ══ -->

<!-- Panel 1: Unmatched Transactions (x=290) -->
<rect x="290" y="720" width="410" height="180" rx="10" fill="#0f1729" stroke="#1e2d50" stroke-width="1"/>
<text x="310" y="748" font-family="Arial,Helvetica,sans-serif" font-size="13" fill="#ffffff" font-weight="600">Unmatched Transactions</text>
<rect x="598" y="734" width="84" height="20" rx="10" fill="#ec4899" fill-opacity="0.15"/>
<text x="640" y="748" text-anchor="middle" font-family="Arial,Helvetica,sans-serif" font-size="11" fill="#ec4899">182 pending</text>
<!-- Row 1 -->
<circle cx="314" cy="774" r="4" fill="#ec4899"/>
<text x="326" y="770" font-family="Arial,Helvetica,sans-serif" font-size="11" fill="#d1d5db">₹2,12,000 — NEFT Inward</text>
<text x="326" y="784" font-family="Arial,Helvetica,sans-serif" font-size="10" fill="#a855f7">→ Match: Customer Receipt CR-2819</text>
<!-- Row 2 -->
<circle cx="314" cy="806" r="4" fill="#ec4899"/>
<text x="326" y="802" font-family="Arial,Helvetica,sans-serif" font-size="11" fill="#d1d5db">Bank Charge ₹450 — HDFC Fee</text>
<text x="326" y="816" font-family="Arial,Helvetica,sans-serif" font-size="10" fill="#a855f7">→ New: Bank Charges Expense</text>
<!-- Row 3 -->
<circle cx="314" cy="838" r="4" fill="#ec4899"/>
<text x="326" y="834" font-family="Arial,Helvetica,sans-serif" font-size="11" fill="#d1d5db">₹85,000 — RTGS Transfer</text>
<text x="326" y="848" font-family="Arial,Helvetica,sans-serif" font-size="10" fill="#a855f7">→ Match: Vendor Payment VP-1142</text>
<!-- Divider lines -->
<line x1="310" y1="792" x2="688" y2="792" stroke="#1e2d50" stroke-width="1"/>
<line x1="310" y1="824" x2="688" y2="824" stroke="#1e2d50" stroke-width="1"/>

<!-- Panel 2: Multi-Bank Snapshot (x=720) -->
<rect x="720" y="720" width="410" height="180" rx="10" fill="#0f1729" stroke="#1e2d50" stroke-width="1"/>
<text x="740" y="748" font-family="Arial,Helvetica,sans-serif" font-size="13" fill="#ffffff" font-weight="600">Multi-Bank Snapshot</text>
<!-- Baseline -->
<line x1="748" y1="874" x2="1112" y2="874" stroke="#1e2d50" stroke-width="1"/>
<!-- HDFC bar -->
<rect x="762" y="812" width="48" height="62" rx="4" fill="#a855f7" fill-opacity="0.85"/>
<text x="786" y="888" text-anchor="middle" font-family="Arial,Helvetica,sans-serif" font-size="10" fill="#6b7280">HDFC</text>
<text x="786" y="803" text-anchor="middle" font-family="Arial,Helvetica,sans-serif" font-size="10" fill="#d8b4fe">₹48.2L</text>
<!-- ICICI bar -->
<rect x="848" y="828" width="48" height="46" rx="4" fill="#a855f7" fill-opacity="0.85"/>
<text x="872" y="888" text-anchor="middle" font-family="Arial,Helvetica,sans-serif" font-size="10" fill="#6b7280">ICICI</text>
<text x="872" y="819" text-anchor="middle" font-family="Arial,Helvetica,sans-serif" font-size="10" fill="#d8b4fe">₹31.7L</text>
<!-- Axis bar -->
<rect x="934" y="844" width="48" height="30" rx="4" fill="#7c3aed" fill-opacity="0.7"/>
<text x="958" y="888" text-anchor="middle" font-family="Arial,Helvetica,sans-serif" font-size="10" fill="#6b7280">Axis</text>
<text x="958" y="835" text-anchor="middle" font-family="Arial,Helvetica,sans-serif" font-size="10" fill="#d8b4fe">₹18.4L</text>
<!-- SBI bar -->
<rect x="1020" y="858" width="48" height="16" rx="4" fill="#7c3aed" fill-opacity="0.5"/>
<text x="1044" y="888" text-anchor="middle" font-family="Arial,Helvetica,sans-serif" font-size="10" fill="#6b7280">SBI</text>
<text x="1044" y="849" text-anchor="middle" font-family="Arial,Helvetica,sans-serif" font-size="10" fill="#d8b4fe">₹9.1L</text>

<!-- Panel 3: Cash Flow Forecast (x=1140) -->
<rect x="1140" y="720" width="420" height="180" rx="10" fill="#0f1729" stroke="#1e2d50" stroke-width="1"/>
<text x="1160" y="748" font-family="Arial,Helvetica,sans-serif" font-size="13" fill="#ffffff" font-weight="600">Cash Flow Forecast (next 7d)</text>
<!-- Baseline -->
<line x1="1155" y1="874" x2="1540" y2="874" stroke="#1e2d50" stroke-width="1"/>
<!-- Mon -->
<rect x="1165" y="826" width="34" height="48" rx="4" fill="#a855f7" fill-opacity="0.85"/>
<text x="1182" y="888" text-anchor="middle" font-family="Arial,Helvetica,sans-serif" font-size="10" fill="#6b7280">Mon</text>
<text x="1182" y="818" text-anchor="middle" font-family="Arial,Helvetica,sans-serif" font-size="10" fill="#d8b4fe">₹32L</text>
<!-- Tue -->
<rect x="1215" y="814" width="34" height="60" rx="4" fill="#a855f7" fill-opacity="0.85"/>
<text x="1232" y="888" text-anchor="middle" font-family="Arial,Helvetica,sans-serif" font-size="10" fill="#6b7280">Tue</text>
<text x="1232" y="806" text-anchor="middle" font-family="Arial,Helvetica,sans-serif" font-size="10" fill="#d8b4fe">₹38L</text>
<!-- Wed -->
<rect x="1265" y="808" width="34" height="66" rx="4" fill="#a855f7" fill-opacity="0.85"/>
<text x="1282" y="888" text-anchor="middle" font-family="Arial,Helvetica,sans-serif" font-size="10" fill="#6b7280">Wed</text>
<text x="1282" y="800" text-anchor="middle" font-family="Arial,Helvetica,sans-serif" font-size="10" fill="#d8b4fe">₹41L</text>
<!-- Thu -->
<rect x="1315" y="800" width="34" height="74" rx="4" fill="#a855f7" fill-opacity="0.85"/>
<text x="1332" y="888" text-anchor="middle" font-family="Arial,Helvetica,sans-serif" font-size="10" fill="#6b7280">Thu</text>
<text x="1332" y="792" text-anchor="middle" font-family="Arial,Helvetica,sans-serif" font-size="10" fill="#d8b4fe">₹45L</text>
<!-- Fri -->
<rect x="1365" y="793" width="34" height="81" rx="4" fill="#a855f7" fill-opacity="0.85"/>
<text x="1382" y="888" text-anchor="middle" font-family="Arial,Helvetica,sans-serif" font-size="10" fill="#6b7280">Fri</text>
<text x="1382" y="785" text-anchor="middle" font-family="Arial,Helvetica,sans-serif" font-size="10" fill="#d8b4fe">₹50L</text>
<!-- Sat -->
<rect x="1415" y="788" width="34" height="86" rx="4" fill="#c084fc" fill-opacity="0.75"/>
<text x="1432" y="888" text-anchor="middle" font-family="Arial,Helvetica,sans-serif" font-size="10" fill="#6b7280">Sat</text>
<text x="1432" y="780" text-anchor="middle" font-family="Arial,Helvetica,sans-serif" font-size="10" fill="#d8b4fe">₹48L</text>
<!-- Sun -->
<rect x="1465" y="782" width="34" height="92" rx="4" fill="#c084fc" fill-opacity="0.75"/>
<text x="1482" y="888" text-anchor="middle" font-family="Arial,Helvetica,sans-serif" font-size="10" fill="#6b7280">Sun</text>
<text x="1482" y="774" text-anchor="middle" font-family="Arial,Helvetica,sans-serif" font-size="10" fill="#d8b4fe">₹56L</text>

<!-- ══ Floating badge 1: Audit trail Live (top-right, x=1240, y=140) ══ -->
<rect x="1240" y="132" width="200" height="32" rx="16" fill="#0b1228" fill-opacity="0.92" stroke="#f472b6" stroke-opacity="0.3" stroke-width="1"/>
<circle cx="1260" cy="148" r="4" fill="#f472b6"/>
<text x="1272" y="153" font-family="Arial,Helvetica,sans-serif" font-size="12" fill="#f9a8d4">Audit trail Live</text>

<!-- ══ Floating badge 2: Compliance 100% (bottom-left, x=270, y=820) ══ -->
<rect x="270" y="820" width="210" height="32" rx="16" fill="#0b1228" fill-opacity="0.92" stroke="#c084fc" stroke-opacity="0.3" stroke-width="1"/>
<circle cx="290" cy="836" r="4" fill="#c084fc"/>
<text x="302" y="841" font-family="Arial,Helvetica,sans-serif" font-size="12" fill="#d8b4fe">Compliance 100%</text>

</svg>