<svg xmlns="http://www.w3.org/2000/svg" viewBox="0 0 1600 952" width="1600" height="952">
<defs>
  <linearGradient id="bgGrad" x1="0" y1="0" x2="0" y2="1">
    <stop offset="0%" stop-color="#06091a"/>
    <stop offset="50%" stop-color="#0d1f45"/>
    <stop offset="100%" stop-color="#06091a"/>
  </linearGradient>
  <linearGradient id="accentGrad" x1="0" y1="0" x2="1" y2="0">
    <stop offset="0%" stop-color="#60a5fa"/>
    <stop offset="100%" stop-color="#a78bfa"/>
  </linearGradient>
  <linearGradient id="areaGrad" x1="0" y1="0" x2="0" y2="1">
    <stop offset="0%" stop-color="#3b82f6" stop-opacity="0.35"/>
    <stop offset="100%" stop-color="#8b5cf6" stop-opacity="0.04"/>
  </linearGradient>
  <linearGradient id="barBlue" x1="0" y1="0" x2="1" y2="0">
    <stop offset="0%" stop-color="#3b82f6"/>
    <stop offset="100%" stop-color="#60a5fa"/>
  </linearGradient>
  <linearGradient id="barViolet" x1="0" y1="0" x2="1" y2="0">
    <stop offset="0%" stop-color="#7c3aed"/>
    <stop offset="100%" stop-color="#a78bfa"/>
  </linearGradient>
</defs>

<!-- Background -->
<rect width="1600" height="952" fill="url(#bgGrad)"/>

<!-- ── Browser chrome ── -->
<circle cx="60" cy="32" r="6" fill="#ff5f57"/>
<circle cx="82" cy="32" r="6" fill="#febc2e"/>
<circle cx="104" cy="32" r="6" fill="#28c840"/>
<rect x="550" y="20" width="500" height="24" rx="12" fill="#1f2937"/>
<text x="800" y="36" text-anchor="middle" font-family="Arial,Helvetica,sans-serif" font-size="12" fill="#9ca3af">app.zopkit.com/dashboard</text>

<!-- ── Title block ── -->
<text x="290" y="122" font-family="Georgia,serif" font-size="28" fill="#ffffff" font-weight="600">Your CFO Command Center</text>
<text x="290" y="148" font-family="Arial,Helvetica,sans-serif" font-size="14" fill="#9ca3af">Real-time financial intelligence — receivables, ratios &amp; cash flows, all in one place.</text>

<!-- ── Sidebar ── -->
<rect x="40" y="180" width="220" height="720" rx="12" fill="#0b1228"/>
<line x1="40" y1="230" x2="260" y2="230" stroke="#1e2d50" stroke-width="1"/>
<text x="60" y="216" font-family="Arial,Helvetica,sans-serif" font-size="10" fill="#6b7280" font-weight="700" letter-spacing="0.08em">FINANCEACCOUNTING</text>
<text x="60" y="258" font-family="Arial,Helvetica,sans-serif" font-size="13" fill="#9ca3af">Dashboard</text>
<text x="60" y="288" font-family="Arial,Helvetica,sans-serif" font-size="13" fill="#6b7280">Accounts Payable</text>
<text x="60" y="318" font-family="Arial,Helvetica,sans-serif" font-size="13" fill="#6b7280">Accounts Receivable</text>
<text x="60" y="348" font-family="Arial,Helvetica,sans-serif" font-size="13" fill="#6b7280">Banking &amp; Cash</text>
<text x="60" y="378" font-family="Arial,Helvetica,sans-serif" font-size="13" fill="#6b7280">General Ledger</text>
<text x="60" y="408" font-family="Arial,Helvetica,sans-serif" font-size="13" fill="#6b7280">Budgeting</text>
<text x="60" y="438" font-family="Arial,Helvetica,sans-serif" font-size="13" fill="#6b7280">Tax Management</text>
<text x="60" y="468" font-family="Arial,Helvetica,sans-serif" font-size="13" fill="#6b7280">Reports</text>
<!-- Fixed Assets — highlighted -->
<rect x="48" y="477" width="204" height="28" rx="6" fill="#60a5fa" fill-opacity="0.18"/>
<rect x="48" y="477" width="4" height="28" rx="2" fill="#60a5fa"/>
<text x="62" y="496" font-family="Arial,Helvetica,sans-serif" font-size="13" fill="#60a5fa" font-weight="600">Fixed Assets</text>
<!-- Bottom nav -->
<line x1="40" y1="845" x2="260" y2="845" stroke="#1e2d50" stroke-width="1"/>
<text x="60" y="864" font-family="Arial,Helvetica,sans-serif" font-size="13" fill="#6b7280">Settings</text>
<text x="60" y="892" font-family="Arial,Helvetica,sans-serif" font-size="13" fill="#6b7280">Help &amp; Support</text>

<!-- ── Date filter pill ── -->
<rect x="1355" y="183" width="210" height="28" rx="14" fill="#111827" stroke="#374151" stroke-width="1"/>
<text x="1460" y="201" text-anchor="middle" font-family="Arial,Helvetica,sans-serif" font-size="12" fill="#d1d5db">Apr 1, 2026 → Apr 30, 2026</text>

<!-- ══ KPI Cards ══ -->

<!-- Card 1: Total Assets -->
<rect x="290" y="240" width="250" height="110" rx="10" fill="#0f1729" stroke="#1e2d50" stroke-width="1"/>
<text x="308" y="266" font-family="Arial,Helvetica,sans-serif" font-size="11" fill="#6b7280">Total Assets</text>
<text x="308" y="302" font-family="Arial,Helvetica,sans-serif" font-size="34" fill="#ffffff" font-weight="700">1,842</text>
<text x="308" y="332" font-family="Arial,Helvetica,sans-serif" font-size="11" fill="#6b7280">Across 14 entities</text>
<polyline points="430,330 445,322 460,325 476,314 492,308 508,312 524,300" fill="none" stroke="#3b82f6" stroke-width="1.5" stroke-linecap="round" stroke-linejoin="round"/>

<!-- Card 2: Net Book Value -->
<rect x="558" y="240" width="250" height="110" rx="10" fill="#0f1729" stroke="#1e2d50" stroke-width="1"/>
<text x="576" y="266" font-family="Arial,Helvetica,sans-serif" font-size="11" fill="#6b7280">Net Book Value</text>
<text x="576" y="302" font-family="Arial,Helvetica,sans-serif" font-size="30" fill="#ffffff" font-weight="700">₹4.31Cr</text>
<text x="576" y="332" font-family="Arial,Helvetica,sans-serif" font-size="11" fill="#ef4444">−6.2% YTD (depr.)</text>
<polyline points="698,300 714,304 730,310 746,316 762,320 778,325 794,332" fill="none" stroke="#8b5cf6" stroke-width="1.5" stroke-linecap="round" stroke-linejoin="round"/>

<!-- Card 3: Depreciation YTD -->
<rect x="826" y="240" width="250" height="110" rx="10" fill="#0f1729" stroke="#1e2d50" stroke-width="1"/>
<text x="844" y="266" font-family="Arial,Helvetica,sans-serif" font-size="11" fill="#6b7280">Depreciation YTD</text>
<text x="844" y="302" font-family="Arial,Helvetica,sans-serif" font-size="30" fill="#ffffff" font-weight="700">₹52.4L</text>
<text x="844" y="325" font-family="Arial,Helvetica,sans-serif" font-size="11" fill="#6b7280">Straight-line + DDB</text>
<rect x="844" y="334" width="214" height="6" rx="3" fill="#1e2d50"/>
<rect x="844" y="334" width="158" height="6" rx="3" fill="url(#accentGrad)"/>
<polyline points="960,330 972,322 984,326 996,316 1008,310 1020,315 1032,304" fill="none" stroke="#a78bfa" stroke-width="1.5" stroke-linecap="round" stroke-linejoin="round"/>

<!-- Card 4: Maintenance Due -->
<rect x="1094" y="240" width="250" height="110" rx="10" fill="#0f1729" stroke="#1e2d50" stroke-width="1"/>
<text x="1112" y="266" font-family="Arial,Helvetica,sans-serif" font-size="11" fill="#6b7280">Maintenance Due (30d)</text>
<text x="1112" y="302" font-family="Arial,Helvetica,sans-serif" font-size="34" fill="#ffffff" font-weight="700">27</text>
<text x="1112" y="332" font-family="Arial,Helvetica,sans-serif" font-size="11" fill="#f97316">5 critical</text>
<polyline points="1232,300 1248,306 1264,311 1280,318 1296,314 1312,320 1328,328" fill="none" stroke="#f97316" stroke-width="1.5" stroke-linecap="round" stroke-linejoin="round"/>

<!-- ══ Main chart: Net Book Value Curve ══ -->
<rect x="290" y="380" width="830" height="320" rx="10" fill="#0f1729" stroke="#1e2d50" stroke-width="1"/>
<text x="310" y="410" font-family="Arial,Helvetica,sans-serif" font-size="14" fill="#ffffff" font-weight="600">Net Book Value Curve — by year</text>
<!-- Legend -->
<rect x="830" y="398" width="10" height="3" rx="1" fill="#3b82f6"/>
<text x="845" y="411" font-family="Arial,Helvetica,sans-serif" font-size="11" fill="#9ca3af">Actual</text>
<line x1="910" y1="406" x2="930" y2="406" stroke="#60a5fa" stroke-width="1.5" stroke-dasharray="4,3"/>
<text x="936" y="411" font-family="Arial,Helvetica,sans-serif" font-size="11" fill="#9ca3af">Projected</text>
<text x="1060" y="411" font-family="Arial,Helvetica,sans-serif" font-size="11" fill="#6b7280">WDV method</text>

<!-- Chart inner background -->
<rect x="332" y="424" width="768" height="248" rx="4" fill="#080e1e"/>

<!-- Grid lines -->
<line x1="332" y1="484" x2="1100" y2="484" stroke="#1e2d50" stroke-width="1" stroke-dasharray="4,4"/>
<line x1="332" y1="546" x2="1100" y2="546" stroke="#1e2d50" stroke-width="1" stroke-dasharray="4,4"/>
<line x1="332" y1="608" x2="1100" y2="608" stroke="#1e2d50" stroke-width="1" stroke-dasharray="4,4"/>
<line x1="332" y1="668" x2="1100" y2="668" stroke="#1e2d50" stroke-width="1" stroke-dasharray="4,4"/>

<!-- Y-axis labels -->
<text x="328" y="429" text-anchor="end" font-family="Arial,Helvetica,sans-serif" font-size="10" fill="#6b7280">₹8Cr</text>
<text x="328" y="489" text-anchor="end" font-family="Arial,Helvetica,sans-serif" font-size="10" fill="#6b7280">₹6Cr</text>
<text x="328" y="551" text-anchor="end" font-family="Arial,Helvetica,sans-serif" font-size="10" fill="#6b7280">₹4Cr</text>
<text x="328" y="613" text-anchor="end" font-family="Arial,Helvetica,sans-serif" font-size="10" fill="#6b7280">₹2Cr</text>
<text x="328" y="673" text-anchor="end" font-family="Arial,Helvetica,sans-serif" font-size="10" fill="#6b7280">₹0</text>

<!-- Area fill under the NBV curve -->
<polygon points="340,458 432,482 524,516 616,544 708,562 800,578 892,590 984,602 984,668 340,668" fill="url(#areaGrad)"/>

<!-- Actual NBV polyline (8 points: 2017–2024) -->
<polyline points="340,458 432,482 524,516 616,544 708,562 800,578 892,590 984,602" fill="none" stroke="#3b82f6" stroke-width="2.5" stroke-linecap="round" stroke-linejoin="round"/>

<!-- Data dots on actual line -->
<circle cx="340" cy="458" r="4" fill="#3b82f6" stroke="#0f1729" stroke-width="2"/>
<circle cx="432" cy="482" r="4" fill="#3b82f6" stroke="#0f1729" stroke-width="2"/>
<circle cx="524" cy="516" r="4" fill="#3b82f6" stroke="#0f1729" stroke-width="2"/>
<circle cx="616" cy="544" r="4" fill="#3b82f6" stroke="#0f1729" stroke-width="2"/>
<circle cx="708" cy="562" r="4" fill="#3b82f6" stroke="#0f1729" stroke-width="2"/>
<circle cx="800" cy="578" r="4" fill="#3b82f6" stroke="#0f1729" stroke-width="2"/>
<circle cx="892" cy="590" r="4" fill="#3b82f6" stroke="#0f1729" stroke-width="2"/>
<circle cx="984" cy="602" r="4" fill="#60a5fa" stroke="#0f1729" stroke-width="2"/>

<!-- Projection dashed line (3 future years: 2025–2027) -->
<line x1="984" y1="602" x2="1076" y2="618" stroke="#60a5fa" stroke-width="1.5" stroke-dasharray="5,4"/>
<line x1="1076" y1="618" x2="1100" y2="622" stroke="#60a5fa" stroke-width="1.5" stroke-dasharray="5,4"/>
<circle cx="1076" cy="618" r="3" fill="none" stroke="#60a5fa" stroke-width="1.5"/>

<!-- X-axis labels -->
<text x="340" y="686" text-anchor="middle" font-family="Arial,Helvetica,sans-serif" font-size="10" fill="#6b7280">2017</text>
<text x="432" y="686" text-anchor="middle" font-family="Arial,Helvetica,sans-serif" font-size="10" fill="#6b7280">2018</text>
<text x="524" y="686" text-anchor="middle" font-family="Arial,Helvetica,sans-serif" font-size="10" fill="#6b7280">2019</text>
<text x="616" y="686" text-anchor="middle" font-family="Arial,Helvetica,sans-serif" font-size="10" fill="#6b7280">2020</text>
<text x="708" y="686" text-anchor="middle" font-family="Arial,Helvetica,sans-serif" font-size="10" fill="#6b7280">2021</text>
<text x="800" y="686" text-anchor="middle" font-family="Arial,Helvetica,sans-serif" font-size="10" fill="#6b7280">2022</text>
<text x="892" y="686" text-anchor="middle" font-family="Arial,Helvetica,sans-serif" font-size="10" fill="#6b7280">2023</text>
<text x="984" y="686" text-anchor="middle" font-family="Arial,Helvetica,sans-serif" font-size="10" fill="#60a5fa" font-weight="600">2024</text>
<text x="1076" y="686" text-anchor="middle" font-family="Arial,Helvetica,sans-serif" font-size="10" fill="#6b7280" font-style="italic">2025e</text>

<!-- ══ Right panel: Assets by Category ══ -->
<rect x="1140" y="380" width="420" height="320" rx="10" fill="#0f1729" stroke="#1e2d50" stroke-width="1"/>
<text x="1160" y="410" font-family="Arial,Helvetica,sans-serif" font-size="14" fill="#ffffff" font-weight="600">Assets by Category</text>
<text x="1540" y="410" text-anchor="end" font-family="Arial,Helvetica,sans-serif" font-size="11" fill="#6b7280">Total: 1,842</text>

<!-- Horizontal stacked bar (full width = 340px = 100%) -->
<!-- Buildings 28% = 95px, Vehicles 18% = 61px, Computers 22% = 75px, Furniture 10% = 34px, Machinery 16% = 54px, Software 6% = 20px -->
<rect x="1160" y="425" width="340" height="28" rx="4" fill="#1e2d50"/>
<rect x="1160" y="425" width="95" height="28" rx="0" fill="#1d4ed8"/>
<rect x="1255" y="425" width="61" height="28" rx="0" fill="#2563eb"/>
<rect x="1316" y="425" width="75" height="28" rx="0" fill="#3b82f6"/>
<rect x="1391" y="425" width="34" height="28" rx="0" fill="#6d28d9"/>
<rect x="1425" y="425" width="54" height="28" rx="0" fill="#7c3aed"/>
<rect x="1479" y="425" width="21" height="28" rx="4" fill="#8b5cf6"/>
<!-- Bar end caps -->
<rect x="1160" y="425" width="4" height="28" rx="2" fill="#1d4ed8"/>
<rect x="1496" y="425" width="4" height="28" rx="2" fill="#8b5cf6"/>

<!-- Percentage labels inside bar -->
<text x="1207" y="444" text-anchor="middle" font-family="Arial,Helvetica,sans-serif" font-size="10" fill="#ffffff" font-weight="600">28%</text>
<text x="1285" y="444" text-anchor="middle" font-family="Arial,Helvetica,sans-serif" font-size="10" fill="#ffffff" font-weight="600">18%</text>
<text x="1353" y="444" text-anchor="middle" font-family="Arial,Helvetica,sans-serif" font-size="10" fill="#ffffff" font-weight="600">22%</text>
<text x="1408" y="444" text-anchor="middle" font-family="Arial,Helvetica,sans-serif" font-size="10" fill="#ffffff" font-weight="600">10%</text>
<text x="1452" y="444" text-anchor="middle" font-family="Arial,Helvetica,sans-serif" font-size="10" fill="#ffffff" font-weight="600">16%</text>

<!-- Legend rows -->
<!-- Row 1: Buildings -->
<rect x="1160" y="470" width="12" height="12" rx="2" fill="#1d4ed8"/>
<text x="1178" y="481" font-family="Arial,Helvetica,sans-serif" font-size="12" fill="#d1d5db">Buildings</text>
<text x="1498" y="481" text-anchor="end" font-family="Arial,Helvetica,sans-serif" font-size="12" fill="#6b7280">516 assets</text>
<text x="1538" y="481" text-anchor="end" font-family="Arial,Helvetica,sans-serif" font-size="12" fill="#93c5fd">₹1.82Cr</text>
<!-- Row 2: Vehicles -->
<rect x="1160" y="498" width="12" height="12" rx="2" fill="#2563eb"/>
<text x="1178" y="509" font-family="Arial,Helvetica,sans-serif" font-size="12" fill="#d1d5db">Vehicles</text>
<text x="1498" y="509" text-anchor="end" font-family="Arial,Helvetica,sans-serif" font-size="12" fill="#6b7280">332 assets</text>
<text x="1538" y="509" text-anchor="end" font-family="Arial,Helvetica,sans-serif" font-size="12" fill="#93c5fd">₹0.91Cr</text>
<!-- Row 3: Computers -->
<rect x="1160" y="526" width="12" height="12" rx="2" fill="#3b82f6"/>
<text x="1178" y="537" font-family="Arial,Helvetica,sans-serif" font-size="12" fill="#d1d5db">Computers</text>
<text x="1498" y="537" text-anchor="end" font-family="Arial,Helvetica,sans-serif" font-size="12" fill="#6b7280">405 assets</text>
<text x="1538" y="537" text-anchor="end" font-family="Arial,Helvetica,sans-serif" font-size="12" fill="#93c5fd">₹0.68Cr</text>
<!-- Row 4: Furniture -->
<rect x="1160" y="554" width="12" height="12" rx="2" fill="#6d28d9"/>
<text x="1178" y="565" font-family="Arial,Helvetica,sans-serif" font-size="12" fill="#d1d5db">Furniture</text>
<text x="1498" y="565" text-anchor="end" font-family="Arial,Helvetica,sans-serif" font-size="12" fill="#6b7280">184 assets</text>
<text x="1538" y="565" text-anchor="end" font-family="Arial,Helvetica,sans-serif" font-size="12" fill="#c4b5fd">₹0.28Cr</text>
<!-- Row 5: Machinery -->
<rect x="1160" y="582" width="12" height="12" rx="2" fill="#7c3aed"/>
<text x="1178" y="593" font-family="Arial,Helvetica,sans-serif" font-size="12" fill="#d1d5db">Machinery</text>
<text x="1498" y="593" text-anchor="end" font-family="Arial,Helvetica,sans-serif" font-size="12" fill="#6b7280">295 assets</text>
<text x="1538" y="593" text-anchor="end" font-family="Arial,Helvetica,sans-serif" font-size="12" fill="#c4b5fd">₹0.48Cr</text>
<!-- Row 6: Software -->
<rect x="1160" y="610" width="12" height="12" rx="2" fill="#8b5cf6"/>
<text x="1178" y="621" font-family="Arial,Helvetica,sans-serif" font-size="12" fill="#d1d5db">Software</text>
<text x="1498" y="621" text-anchor="end" font-family="Arial,Helvetica,sans-serif" font-size="12" fill="#6b7280">110 assets</text>
<text x="1538" y="621" text-anchor="end" font-family="Arial,Helvetica,sans-serif" font-size="12" fill="#c4b5fd">₹0.14Cr</text>

<!-- Mini donut summary -->
<text x="1160" y="672" font-family="Arial,Helvetica,sans-serif" font-size="11" fill="#6b7280">Avg. asset age:</text>
<text x="1265" y="672" font-family="Arial,Helvetica,sans-serif" font-size="11" fill="#93c5fd" font-weight="600">4.7 years</text>
<text x="1360" y="672" font-family="Arial,Helvetica,sans-serif" font-size="11" fill="#6b7280">Fully depreciated:</text>
<text x="1490" y="672" font-family="Arial,Helvetica,sans-serif" font-size="11" fill="#f97316" font-weight="600">213</text>

<!-- ══ Bottom Row ══ -->

<!-- Panel 1: Upcoming Maintenance (x=290) -->
<rect x="290" y="720" width="410" height="180" rx="10" fill="#0f1729" stroke="#1e2d50" stroke-width="1"/>
<text x="310" y="748" font-family="Arial,Helvetica,sans-serif" font-size="13" fill="#ffffff" font-weight="600">Upcoming Maintenance</text>
<rect x="598" y="734" width="82" height="20" rx="10" fill="#f97316" fill-opacity="0.15"/>
<text x="639" y="748" text-anchor="middle" font-family="Arial,Helvetica,sans-serif" font-size="11" fill="#f97316">5 critical</text>
<!-- Row 1 (critical) -->
<rect x="308" y="758" width="6" height="26" rx="3" fill="#ef4444"/>
<text x="322" y="770" font-family="Arial,Helvetica,sans-serif" font-size="12" fill="#d1d5db" font-weight="600">GEN-0042</text>
<text x="322" y="784" font-family="Arial,Helvetica,sans-serif" font-size="11" fill="#6b7280">Diesel Generator — Engine service</text>
<text x="686" y="770" text-anchor="end" font-family="Arial,Helvetica,sans-serif" font-size="11" fill="#ef4444" font-weight="600">Apr 28</text>
<!-- Row 2 -->
<line x1="310" y1="796" x2="688" y2="796" stroke="#1e2d50" stroke-width="1"/>
<rect x="308" y="802" width="6" height="26" rx="3" fill="#f97316"/>
<text x="322" y="814" font-family="Arial,Helvetica,sans-serif" font-size="12" fill="#d1d5db" font-weight="600">VEH-1183</text>
<text x="322" y="828" font-family="Arial,Helvetica,sans-serif" font-size="11" fill="#6b7280">Toyota Innova — Scheduled service</text>
<text x="686" y="814" text-anchor="end" font-family="Arial,Helvetica,sans-serif" font-size="11" fill="#f97316" font-weight="600">May 3</text>
<!-- Row 3 -->
<line x1="310" y1="840" x2="688" y2="840" stroke="#1e2d50" stroke-width="1"/>
<rect x="308" y="846" width="6" height="26" rx="3" fill="#3b82f6"/>
<text x="322" y="858" font-family="Arial,Helvetica,sans-serif" font-size="12" fill="#d1d5db" font-weight="600">HVAC-007</text>
<text x="322" y="872" font-family="Arial,Helvetica,sans-serif" font-size="11" fill="#6b7280">Central AC Unit — Filter change</text>
<text x="686" y="858" text-anchor="end" font-family="Arial,Helvetica,sans-serif" font-size="11" fill="#60a5fa" font-weight="600">May 10</text>

<!-- Panel 2: Recent Disposals (x=720) -->
<rect x="720" y="720" width="410" height="180" rx="10" fill="#0f1729" stroke="#1e2d50" stroke-width="1"/>
<text x="740" y="748" font-family="Arial,Helvetica,sans-serif" font-size="13" fill="#ffffff" font-weight="600">Recent Disposals</text>
<text x="1110" y="748" text-anchor="end" font-family="Arial,Helvetica,sans-serif" font-size="11" fill="#6b7280">This month</text>
<!-- Header row -->
<text x="740" y="770" font-family="Arial,Helvetica,sans-serif" font-size="10" fill="#6b7280" font-weight="600">ASSET</text>
<text x="938" y="770" text-anchor="middle" font-family="Arial,Helvetica,sans-serif" font-size="10" fill="#6b7280" font-weight="600">BOOK VALUE</text>
<text x="1108" y="770" text-anchor="end" font-family="Arial,Helvetica,sans-serif" font-size="10" fill="#6b7280" font-weight="600">GAIN / LOSS</text>
<line x1="740" y1="775" x2="1108" y2="775" stroke="#1e2d50" stroke-width="1"/>
<!-- Row 1: Gain -->
<text x="740" y="793" font-family="Arial,Helvetica,sans-serif" font-size="12" fill="#d1d5db">Server Rack SR-12</text>
<text x="938" y="793" text-anchor="middle" font-family="Arial,Helvetica,sans-serif" font-size="12" fill="#6b7280">₹1.2L</text>
<text x="1108" y="793" text-anchor="end" font-family="Arial,Helvetica,sans-serif" font-size="12" fill="#10b981" font-weight="600">+₹18,400</text>
<!-- Row 2: Loss -->
<line x1="740" y1="802" x2="1108" y2="802" stroke="#1e2d50" stroke-width="1"/>
<text x="740" y="820" font-family="Arial,Helvetica,sans-serif" font-size="12" fill="#d1d5db">Office Chair Set</text>
<text x="938" y="820" text-anchor="middle" font-family="Arial,Helvetica,sans-serif" font-size="12" fill="#6b7280">₹0.4L</text>
<text x="1108" y="820" text-anchor="end" font-family="Arial,Helvetica,sans-serif" font-size="12" fill="#ef4444" font-weight="600">−₹6,200</text>
<!-- Row 3: Gain -->
<line x1="740" y1="829" x2="1108" y2="829" stroke="#1e2d50" stroke-width="1"/>
<text x="740" y="847" font-family="Arial,Helvetica,sans-serif" font-size="12" fill="#d1d5db">Forklift FL-03</text>
<text x="938" y="847" text-anchor="middle" font-family="Arial,Helvetica,sans-serif" font-size="12" fill="#6b7280">₹3.8L</text>
<text x="1108" y="847" text-anchor="end" font-family="Arial,Helvetica,sans-serif" font-size="12" fill="#10b981" font-weight="600">+₹42,000</text>
<!-- Total -->
<line x1="740" y1="857" x2="1108" y2="857" stroke="#374151" stroke-width="1"/>
<text x="740" y="876" font-family="Arial,Helvetica,sans-serif" font-size="12" fill="#9ca3af" font-weight="600">Net disposal gain</text>
<text x="1108" y="876" text-anchor="end" font-family="Arial,Helvetica,sans-serif" font-size="12" fill="#10b981" font-weight="700">+₹54,200</text>

<!-- Panel 3: Depreciation Schedule (x=1140) -->
<rect x="1140" y="720" width="420" height="180" rx="10" fill="#0f1729" stroke="#1e2d50" stroke-width="1"/>
<text x="1160" y="748" font-family="Arial,Helvetica,sans-serif" font-size="13" fill="#ffffff" font-weight="600">Depreciation Schedule</text>
<text x="1540" y="748" text-anchor="end" font-family="Arial,Helvetica,sans-serif" font-size="11" fill="#6b7280">FY 2024–25</text>

<!-- Bar chart baseline -->
<line x1="1158" y1="872" x2="1540" y2="872" stroke="#1e2d50" stroke-width="1"/>

<!-- Q1 bar group -->
<rect x="1175" y="796" width="52" height="76" rx="4" fill="url(#barBlue)" fill-opacity="0.9"/>
<text x="1201" y="886" text-anchor="middle" font-family="Arial,Helvetica,sans-serif" font-size="10" fill="#6b7280">Q1</text>
<text x="1201" y="788" text-anchor="middle" font-family="Arial,Helvetica,sans-serif" font-size="10" fill="#93c5fd">₹13.1L</text>

<!-- Q2 bar group -->
<rect x="1271" y="802" width="52" height="70" rx="4" fill="url(#barBlue)" fill-opacity="0.85"/>
<text x="1297" y="886" text-anchor="middle" font-family="Arial,Helvetica,sans-serif" font-size="10" fill="#6b7280">Q2</text>
<text x="1297" y="794" text-anchor="middle" font-family="Arial,Helvetica,sans-serif" font-size="10" fill="#93c5fd">₹12.8L</text>

<!-- Q3 bar group -->
<rect x="1367" y="812" width="52" height="60" rx="4" fill="url(#barViolet)" fill-opacity="0.85"/>
<text x="1393" y="886" text-anchor="middle" font-family="Arial,Helvetica,sans-serif" font-size="10" fill="#6b7280">Q3</text>
<text x="1393" y="804" text-anchor="middle" font-family="Arial,Helvetica,sans-serif" font-size="10" fill="#c4b5fd">₹14.2L</text>

<!-- Q4 bar group (projected, lighter) -->
<rect x="1463" y="790" width="52" height="82" rx="4" fill="url(#barViolet)" fill-opacity="0.55" stroke="#8b5cf6" stroke-width="1" stroke-dasharray="4,3"/>
<text x="1489" y="886" text-anchor="middle" font-family="Arial,Helvetica,sans-serif" font-size="10" fill="#6b7280">Q4e</text>
<text x="1489" y="782" text-anchor="middle" font-family="Arial,Helvetica,sans-serif" font-size="10" fill="#c4b5fd" font-style="italic">₹12.3L</text>

<!-- ══ Floating badge 1: Accuracy 99.9% ══ -->
<rect x="1240" y="132" width="210" height="32" rx="16" fill="#0b1228" fill-opacity="0.93" stroke="#60a5fa" stroke-opacity="0.35" stroke-width="1"/>
<circle cx="1260" cy="148" r="4" fill="#60a5fa"/>
<text x="1272" y="153" font-family="Arial,Helvetica,sans-serif" font-size="12" fill="#93c5fd">Accuracy 99.9%</text>

<!-- ══ Floating badge 2: Entries saved -60% ══ -->
<rect x="270" y="820" width="218" height="32" rx="16" fill="#0b1228" fill-opacity="0.93" stroke="#4ade80" stroke-opacity="0.3" stroke-width="1"/>
<circle cx="290" cy="836" r="4" fill="#4ade80"/>
<text x="302" y="841" font-family="Arial,Helvetica,sans-serif" font-size="12" fill="#86efac">Entries saved −60%</text>

</svg>