<svg xmlns="http://www.w3.org/2000/svg" width="1600" height="952" viewBox="0 0 1600 952">
<defs>
  <linearGradient id="bgGrad" x1="0" y1="0" x2="0" y2="1">
    <stop offset="0%"   stop-color="#06091a"/>
    <stop offset="50%"  stop-color="#0d1f45"/>
    <stop offset="100%" stop-color="#06091a"/>
  </linearGradient>
  <linearGradient id="accentGrad" x1="0" y1="0" x2="1" y2="0">
    <stop offset="0%"   stop-color="#c084fc"/>
    <stop offset="100%" stop-color="#f472b6"/>
  </linearGradient>
  <filter id="shadow" x="-20%" y="-20%" width="140%" height="140%">
    <feDropShadow dx="0" dy="4" stdDeviation="6" flood-color="#000" flood-opacity="0.5"/>
  </filter>
</defs>
<rect width="1600" height="952" fill="url(#bgGrad)"/>
<circle cx="46" cy="30" r="6" fill="#ff5f57"/>
<circle cx="66" cy="30" r="6" fill="#febc2e"/>
<circle cx="86" cy="30" r="6" fill="#28c840"/>
<rect x="600" y="17" width="400" height="24" rx="12" fill="#1f2937"/>
<text x="800" y="32" font-family="'Inter','Segoe UI',sans-serif" font-size="11" fill="#9ca3af" text-anchor="middle">app.zopkit.com/dashboard</text>
<text x="290" y="118" font-family="Georgia,'Times New Roman',serif" font-size="28" font-weight="700" fill="#ffffff">Your CFO Command Center</text>
<text x="290" y="144" font-family="'Inter',sans-serif" font-size="14" fill="#9ca3af">Real-time financial intelligence &#8212; receivables, ratios &amp; cash flows, all in one place.</text>
<rect x="40" y="180" width="220" height="720" rx="12" fill="#0b1228"/>
<text x="60" y="212" font-family="'Inter',sans-serif" font-size="13" font-weight="700" fill="#ffffff">FinanceAccounting</text>
<text x="68" y="250" font-family="'Inter',sans-serif" font-size="12" fill="#d1d5db">Dashboard</text>
<text x="68" y="294" font-family="'Inter',sans-serif" font-size="12" fill="#d1d5db">Accounts Payable</text>
<text x="68" y="338" font-family="'Inter',sans-serif" font-size="12" fill="#d1d5db">Accounts Receivable</text>
<text x="68" y="382" font-family="'Inter',sans-serif" font-size="12" fill="#d1d5db">Banking &amp; Cash</text>
<text x="68" y="426" font-family="'Inter',sans-serif" font-size="12" fill="#d1d5db">General Ledger</text>
<text x="68" y="470" font-family="'Inter',sans-serif" font-size="12" fill="#d1d5db">Budgeting</text>
<text x="68" y="514" font-family="'Inter',sans-serif" font-size="12" fill="#d1d5db">Tax Management</text>
<text x="68" y="558" font-family="'Inter',sans-serif" font-size="12" fill="#d1d5db">Reports</text>
<rect x="48" y="586" width="204" height="30" rx="6" fill="#c084fc" fill-opacity="0.28"/>
<text x="68" y="602" font-family="'Inter',sans-serif" font-size="12" fill="#c084fc" font-weight="600">Multi-Currency</text>
<text x="68" y="864" font-family="'Inter',sans-serif" font-size="12" fill="#6b7280">Settings</text>
<text x="68" y="888" font-family="'Inter',sans-serif" font-size="12" fill="#6b7280">Help &amp; Support</text>
<rect x="1380" y="188" width="200" height="26" rx="13" fill="#111827"/>
<text x="1392" y="204" font-family="'Inter',sans-serif" font-size="11" fill="#d1d5db">Apr 1, 2026 &#8594; Apr 30, 2026</text>
<rect x="290" y="240" width="250" height="110" rx="10" fill="#0b1228" fill-opacity="0.95"/>
<text x="306" y="266" font-family="'Inter',sans-serif" font-size="11" fill="#9ca3af">Currencies Supported</text>
<text x="306" y="290" font-family="'Inter',sans-serif" font-size="22" font-weight="700" fill="#ffffff">150+</text>
<text x="306" y="334" font-family="'Inter',sans-serif" font-size="11" fill="#c084fc">ISO 4217 set</text>
<rect x="458" y="330" width="7" height="10" rx="2" fill="#c084fc" fill-opacity="0.85"/>
<rect x="468" y="328" width="7" height="12" rx="2" fill="#c084fc" fill-opacity="0.85"/>
<rect x="478" y="330" width="7" height="10" rx="2" fill="#c084fc" fill-opacity="0.85"/>
<rect x="488" y="326" width="7" height="14" rx="2" fill="#c084fc" fill-opacity="0.85"/>
<rect x="498" y="326" width="7" height="14" rx="2" fill="#c084fc" fill-opacity="0.85"/>
<rect x="508" y="324" width="7" height="16" rx="2" fill="#c084fc" fill-opacity="0.85"/>
<rect x="518" y="324" width="7" height="16" rx="2" fill="#c084fc" fill-opacity="0.85"/>
<rect x="528" y="322" width="7" height="18" rx="2" fill="#c084fc" fill-opacity="0.85"/>
<rect x="558" y="240" width="250" height="110" rx="10" fill="#0b1228" fill-opacity="0.95"/>
<text x="574" y="266" font-family="'Inter',sans-serif" font-size="11" fill="#9ca3af">FX Updates / Day</text>
<text x="574" y="290" font-family="'Inter',sans-serif" font-size="22" font-weight="700" fill="#ffffff">24</text>
<text x="574" y="334" font-family="'Inter',sans-serif" font-size="11" fill="#f472b6">ECB + RBI feeds</text>
<rect x="726" y="332" width="7" height="8" rx="2" fill="#f472b6" fill-opacity="0.85"/>
<rect x="736" y="328" width="7" height="12" rx="2" fill="#f472b6" fill-opacity="0.85"/>
<rect x="746" y="330" width="7" height="10" rx="2" fill="#f472b6" fill-opacity="0.85"/>
<rect x="756" y="326" width="7" height="14" rx="2" fill="#f472b6" fill-opacity="0.85"/>
<rect x="766" y="328" width="7" height="12" rx="2" fill="#f472b6" fill-opacity="0.85"/>
<rect x="776" y="324" width="7" height="16" rx="2" fill="#f472b6" fill-opacity="0.85"/>
<rect x="786" y="326" width="7" height="14" rx="2" fill="#f472b6" fill-opacity="0.85"/>
<rect x="796" y="322" width="7" height="18" rx="2" fill="#f472b6" fill-opacity="0.85"/>
<rect x="826" y="240" width="250" height="110" rx="10" fill="#0b1228" fill-opacity="0.95"/>
<text x="842" y="266" font-family="'Inter',sans-serif" font-size="11" fill="#9ca3af">Avg FX Spread</text>
<text x="842" y="290" font-family="'Inter',sans-serif" font-size="22" font-weight="700" fill="#ffffff">0.18%</text>
<text x="842" y="334" font-family="'Inter',sans-serif" font-size="11" fill="#4ade80">&#8722;0.04% MoM</text>
<rect x="994" y="322" width="7" height="18" rx="2" fill="#4ade80" fill-opacity="0.85"/>
<rect x="1004" y="324" width="7" height="16" rx="2" fill="#4ade80" fill-opacity="0.85"/>
<rect x="1014" y="326" width="7" height="14" rx="2" fill="#4ade80" fill-opacity="0.85"/>
<rect x="1024" y="326" width="7" height="14" rx="2" fill="#4ade80" fill-opacity="0.85"/>
<rect x="1034" y="328" width="7" height="12" rx="2" fill="#4ade80" fill-opacity="0.85"/>
<rect x="1044" y="328" width="7" height="12" rx="2" fill="#4ade80" fill-opacity="0.85"/>
<rect x="1054" y="330" width="7" height="10" rx="2" fill="#4ade80" fill-opacity="0.85"/>
<rect x="1064" y="332" width="7" height="8" rx="2" fill="#4ade80" fill-opacity="0.85"/>
<rect x="1094" y="240" width="250" height="110" rx="10" fill="#0b1228" fill-opacity="0.95"/>
<text x="1110" y="266" font-family="'Inter',sans-serif" font-size="11" fill="#9ca3af">Multi-Curr Invoices</text>
<text x="1110" y="290" font-family="'Inter',sans-serif" font-size="22" font-weight="700" fill="#ffffff">318</text>
<text x="1110" y="334" font-family="'Inter',sans-serif" font-size="11" fill="#22d3ee">12 currencies</text>
<rect x="1262" y="332" width="7" height="8" rx="2" fill="#22d3ee" fill-opacity="0.85"/>
<rect x="1272" y="330" width="7" height="10" rx="2" fill="#22d3ee" fill-opacity="0.85"/>
<rect x="1282" y="328" width="7" height="12" rx="2" fill="#22d3ee" fill-opacity="0.85"/>
<rect x="1292" y="328" width="7" height="12" rx="2" fill="#22d3ee" fill-opacity="0.85"/>
<rect x="1302" y="326" width="7" height="14" rx="2" fill="#22d3ee" fill-opacity="0.85"/>
<rect x="1312" y="326" width="7" height="14" rx="2" fill="#22d3ee" fill-opacity="0.85"/>
<rect x="1322" y="324" width="7" height="16" rx="2" fill="#22d3ee" fill-opacity="0.85"/>
<rect x="1332" y="322" width="7" height="18" rx="2" fill="#22d3ee" fill-opacity="0.85"/>
<rect x="290" y="380" width="830" height="320" rx="10" fill="#0b1228" fill-opacity="0.95"/>
<text x="310" y="408" font-family="'Inter',sans-serif" font-size="14" font-weight="600" fill="#ffffff">INR Exchange Rates &#8212; last 30 days</text>
<line x1="342" y1="432" x2="1100" y2="432" stroke="#1e2d4a" stroke-width="1"/>
<line x1="342" y1="476" x2="1100" y2="476" stroke="#1e2d4a" stroke-width="1"/>
<line x1="342" y1="520" x2="1100" y2="520" stroke="#1e2d4a" stroke-width="1"/>
<line x1="342" y1="564" x2="1100" y2="564" stroke="#1e2d4a" stroke-width="1"/>
<line x1="342" y1="608" x2="1100" y2="608" stroke="#1e2d4a" stroke-width="1"/>
<polyline points="350,441 457,437 564,443 671,435 779,440 886,433 993,438 1100,435" fill="none" stroke="#a855f7" stroke-width="2.5" stroke-linejoin="round" stroke-linecap="round"/>
<circle cx="1100" cy="435" r="5" fill="#a855f7" fill-opacity="0.3"/>
<circle cx="1100" cy="435" r="3" fill="#a855f7"/>
<text x="1108" y="439" font-family="'Inter',sans-serif" font-size="11" fill="#a855f7">GBP 105.8</text>
<polyline points="350,477 457,473 564,479 671,471 779,476 886,470 993,475 1100,472" fill="none" stroke="#c084fc" stroke-width="2.5" stroke-linejoin="round" stroke-linecap="round"/>
<circle cx="1100" cy="472" r="5" fill="#c084fc" fill-opacity="0.3"/>
<circle cx="1100" cy="472" r="3" fill="#c084fc"/>
<text x="1108" y="476" font-family="'Inter',sans-serif" font-size="11" fill="#c084fc">EUR 90.4</text>
<polyline points="350,501 457,497 564,504 671,495 779,500 886,494 993,498 1100,495" fill="none" stroke="#ec4899" stroke-width="2.5" stroke-linejoin="round" stroke-linecap="round"/>
<circle cx="1100" cy="495" r="5" fill="#ec4899" fill-opacity="0.3"/>
<circle cx="1100" cy="495" r="3" fill="#ec4899"/>
<text x="1108" y="499" font-family="'Inter',sans-serif" font-size="11" fill="#ec4899">USD 84.1</text>
<polyline points="350,630 457,626 564,633 671,627 779,631 886,625 993,629 1100,626" fill="none" stroke="#f472b6" stroke-width="2.5" stroke-linejoin="round" stroke-linecap="round"/>
<circle cx="1100" cy="626" r="5" fill="#f472b6" fill-opacity="0.3"/>
<circle cx="1100" cy="626" r="3" fill="#f472b6"/>
<text x="1108" y="630" font-family="'Inter',sans-serif" font-size="11" fill="#f472b6">AED 22.9</text>
<text x="350" y="688" font-family="'Inter',sans-serif" font-size="10" fill="#6b7280" text-anchor="middle">Mar 1</text>
<text x="564" y="688" font-family="'Inter',sans-serif" font-size="10" fill="#6b7280" text-anchor="middle">Mar 10</text>
<text x="779" y="688" font-family="'Inter',sans-serif" font-size="10" fill="#6b7280" text-anchor="middle">Mar 20</text>
<text x="993" y="688" font-family="'Inter',sans-serif" font-size="10" fill="#6b7280" text-anchor="middle">Mar 30</text>
<rect x="310" y="692" width="10" height="10" rx="2" fill="#a855f7" fill-opacity="0.9"/>
<text x="324" y="701" font-family="'Inter',sans-serif" font-size="10" fill="#9ca3af">GBP</text>
<rect x="390" y="692" width="10" height="10" rx="2" fill="#c084fc" fill-opacity="0.9"/>
<text x="404" y="701" font-family="'Inter',sans-serif" font-size="10" fill="#9ca3af">EUR</text>
<rect x="470" y="692" width="10" height="10" rx="2" fill="#ec4899" fill-opacity="0.9"/>
<text x="484" y="701" font-family="'Inter',sans-serif" font-size="10" fill="#9ca3af">USD</text>
<rect x="550" y="692" width="10" height="10" rx="2" fill="#f472b6" fill-opacity="0.9"/>
<text x="564" y="701" font-family="'Inter',sans-serif" font-size="10" fill="#9ca3af">AED</text>
<rect x="1140" y="380" width="420" height="320" rx="10" fill="#0b1228" fill-opacity="0.95"/>
<text x="1160" y="408" font-family="'Inter',sans-serif" font-size="14" font-weight="600" fill="#ffffff">Cash Held by Currency</text>
<path d="M 1228.00 472.00 A 76 76 0 1 1 1175.97 603.40 L 1195.83 582.26 A 47 47 0 1 0 1228.00 501.00 Z" fill="#a855f7" opacity="0.9"/>
<path d="M 1175.97 603.40 A 76 76 0 0 1 1155.72 524.51 L 1183.30 533.48 A 47 47 0 0 0 1195.83 582.26 Z" fill="#c084fc" opacity="0.9"/>
<path d="M 1155.72 524.51 A 76 76 0 0 1 1179.56 489.44 L 1198.04 511.79 A 47 47 0 0 0 1183.30 533.48 Z" fill="#ec4899" opacity="0.9"/>
<path d="M 1179.56 489.44 A 76 76 0 0 1 1200.02 477.34 L 1210.70 504.30 A 47 47 0 0 0 1198.04 511.79 Z" fill="#f472b6" opacity="0.9"/>
<path d="M 1200.02 477.34 A 76 76 0 0 1 1218.47 472.60 L 1222.11 501.37 A 47 47 0 0 0 1210.70 504.30 Z" fill="#e879f9" opacity="0.9"/>
<path d="M 1218.47 472.60 A 76 76 0 0 1 1228.00 472.00 L 1228.00 501.00 A 47 47 0 0 0 1222.11 501.37 Z" fill="#6b7280" opacity="0.9"/>
<text x="1228" y="543" font-family="'Inter',sans-serif" font-size="13" font-weight="700" fill="#ffffff" text-anchor="middle">&#8377; Mix</text>
<text x="1228" y="559" font-family="'Inter',sans-serif" font-size="10" fill="#9ca3af" text-anchor="middle">6 currencies</text>
<rect x="1324" y="426" width="10" height="10" rx="2" fill="#a855f7" fill-opacity="0.9"/>
<text x="1338" y="435" font-family="'Inter',sans-serif" font-size="11" fill="#d1d5db">INR</text>
<text x="1410" y="435" font-family="'Inter',sans-serif" font-size="11" fill="#9ca3af" text-anchor="end">62%</text>
<rect x="1324" y="456" width="10" height="10" rx="2" fill="#c084fc" fill-opacity="0.9"/>
<text x="1338" y="465" font-family="'Inter',sans-serif" font-size="11" fill="#d1d5db">USD</text>
<text x="1410" y="465" font-family="'Inter',sans-serif" font-size="11" fill="#9ca3af" text-anchor="end">18%</text>
<rect x="1324" y="486" width="10" height="10" rx="2" fill="#ec4899" fill-opacity="0.9"/>
<text x="1338" y="495" font-family="'Inter',sans-serif" font-size="11" fill="#d1d5db">EUR</text>
<text x="1410" y="495" font-family="'Inter',sans-serif" font-size="11" fill="#9ca3af" text-anchor="end">9%</text>
<rect x="1324" y="516" width="10" height="10" rx="2" fill="#f472b6" fill-opacity="0.9"/>
<text x="1338" y="525" font-family="'Inter',sans-serif" font-size="11" fill="#d1d5db">GBP</text>
<text x="1410" y="525" font-family="'Inter',sans-serif" font-size="11" fill="#9ca3af" text-anchor="end">5%</text>
<rect x="1324" y="546" width="10" height="10" rx="2" fill="#e879f9" fill-opacity="0.9"/>
<text x="1338" y="555" font-family="'Inter',sans-serif" font-size="11" fill="#d1d5db">AED</text>
<text x="1410" y="555" font-family="'Inter',sans-serif" font-size="11" fill="#9ca3af" text-anchor="end">4%</text>
<rect x="1324" y="576" width="10" height="10" rx="2" fill="#6b7280" fill-opacity="0.9"/>
<text x="1338" y="585" font-family="'Inter',sans-serif" font-size="11" fill="#d1d5db">Other</text>
<text x="1410" y="585" font-family="'Inter',sans-serif" font-size="11" fill="#9ca3af" text-anchor="end">2%</text>
<rect x="290" y="720" width="410" height="200" rx="10" fill="#0b1228" fill-opacity="0.95"/>
<text x="310" y="748" font-family="'Inter',sans-serif" font-size="13" font-weight="600" fill="#ffffff">Recent FX Conversions</text>
<line x1="310" y1="759" x2="680" y2="759" stroke="#1f2937" stroke-width="1"/>
<text x="312" y="780" font-family="'Inter',sans-serif" font-size="12" fill="#c084fc" font-weight="500">USD &#8594; INR</text>
<text x="458" y="780" font-family="'Inter',sans-serif" font-size="11" fill="#ffffff">$5,000</text>
<text x="556" y="780" font-family="'Inter',sans-serif" font-size="10" fill="#6b7280">@84.12</text>
<text x="312" y="818" font-family="'Inter',sans-serif" font-size="12" fill="#c084fc" font-weight="500">EUR &#8594; INR</text>
<text x="458" y="818" font-family="'Inter',sans-serif" font-size="11" fill="#ffffff">&#8364;2,200</text>
<text x="556" y="818" font-family="'Inter',sans-serif" font-size="10" fill="#6b7280">@90.45</text>
<text x="312" y="856" font-family="'Inter',sans-serif" font-size="12" fill="#c084fc" font-weight="500">GBP &#8594; INR</text>
<text x="458" y="856" font-family="'Inter',sans-serif" font-size="11" fill="#ffffff">&#163;1,500</text>
<text x="556" y="856" font-family="'Inter',sans-serif" font-size="10" fill="#6b7280">@105.80</text>
<rect x="720" y="720" width="410" height="200" rx="10" fill="#0b1228" fill-opacity="0.95"/>
<text x="740" y="748" font-family="'Inter',sans-serif" font-size="13" font-weight="600" fill="#ffffff">Multi-Curr P&amp;L (this mo)</text>
<line x1="740" y1="759" x2="1110" y2="759" stroke="#1f2937" stroke-width="1"/>
<rect x="752" y="830" width="34" height="54" rx="3" fill="#a855f7" fill-opacity="0.85"/>
<text x="769" y="826" font-family="'Inter',sans-serif" font-size="9" fill="#a855f7" text-anchor="middle">+18L</text>
<text x="769" y="896" font-family="'Inter',sans-serif" font-size="10" fill="#9ca3af" text-anchor="middle">USD</text>
<rect x="840" y="848" width="34" height="36" rx="3" fill="#c084fc" fill-opacity="0.85"/>
<text x="857" y="844" font-family="'Inter',sans-serif" font-size="9" fill="#c084fc" text-anchor="middle">+12L</text>
<text x="857" y="896" font-family="'Inter',sans-serif" font-size="10" fill="#9ca3af" text-anchor="middle">EUR</text>
<rect x="928" y="860" width="34" height="24" rx="3" fill="#ec4899" fill-opacity="0.85"/>
<text x="945" y="856" font-family="'Inter',sans-serif" font-size="9" fill="#ec4899" text-anchor="middle">+8L</text>
<text x="945" y="896" font-family="'Inter',sans-serif" font-size="10" fill="#9ca3af" text-anchor="middle">GBP</text>
<rect x="1016" y="869" width="34" height="15" rx="3" fill="#f472b6" fill-opacity="0.85"/>
<text x="1033" y="865" font-family="'Inter',sans-serif" font-size="9" fill="#f472b6" text-anchor="middle">+5L</text>
<text x="1033" y="896" font-family="'Inter',sans-serif" font-size="10" fill="#9ca3af" text-anchor="middle">AED</text>
<rect x="1140" y="720" width="410" height="200" rx="10" fill="#0b1228" fill-opacity="0.95"/>
<text x="1160" y="748" font-family="'Inter',sans-serif" font-size="13" font-weight="600" fill="#ffffff">Hedging Status</text>
<line x1="1160" y1="759" x2="1530" y2="759" stroke="#1f2937" stroke-width="1"/>
<rect x="1165" y="772" width="100" height="28" rx="14" fill="#a855f7" fill-opacity="0.2"/>
<text x="1177" y="790" font-family="'Inter',sans-serif" font-size="11" fill="#a855f7" font-weight="600">Forward</text>
<text x="1249" y="790" font-family="'Inter',sans-serif" font-size="11" fill="#a855f7" font-weight="700">12</text>
<rect x="1295" y="772" width="100" height="28" rx="14" fill="#22d3ee" fill-opacity="0.2"/>
<text x="1307" y="790" font-family="'Inter',sans-serif" font-size="11" fill="#22d3ee" font-weight="600">Spot</text>
<text x="1379" y="790" font-family="'Inter',sans-serif" font-size="11" fill="#22d3ee" font-weight="700">8</text>
<rect x="1425" y="772" width="100" height="28" rx="14" fill="#f59e0b" fill-opacity="0.2"/>
<text x="1437" y="790" font-family="'Inter',sans-serif" font-size="11" fill="#f59e0b" font-weight="600">Pending</text>
<text x="1509" y="790" font-family="'Inter',sans-serif" font-size="11" fill="#f59e0b" font-weight="700">3</text>
<text x="1165" y="822" font-family="'Inter',sans-serif" font-size="11" fill="#9ca3af">Total hedged exposure</text>
<text x="1530" y="822" font-family="'Inter',sans-serif" font-size="11" fill="#d1d5db" text-anchor="end">&#8377;12.4Cr</text>
<text x="1165" y="850" font-family="'Inter',sans-serif" font-size="11" fill="#9ca3af">Open contracts</text>
<text x="1530" y="850" font-family="'Inter',sans-serif" font-size="11" fill="#d1d5db" text-anchor="end">14 active</text>
<text x="1165" y="878" font-family="'Inter',sans-serif" font-size="11" fill="#9ca3af">Next maturity</text>
<text x="1530" y="878" font-family="'Inter',sans-serif" font-size="11" fill="#d1d5db" text-anchor="end">May 15 2026</text>
<rect x="1240" y="138" width="178" height="30" rx="15" fill="#0b1228" fill-opacity="0.92" filter="url(#shadow)"/>
<circle cx="1253" cy="153" r="5" fill="#f472b6"/>
<text x="1263" y="157" font-family="'Inter',sans-serif" font-size="11" fill="#f9a8d4">Audit trail Live</text>
<rect x="270" y="820" width="196" height="30" rx="15" fill="#0b1228" fill-opacity="0.92" filter="url(#shadow)"/>
<circle cx="283" cy="835" r="5" fill="#c084fc"/>
<text x="293" y="839" font-family="'Inter',sans-serif" font-size="11" fill="#d8b4fe">Compliance 100%</text>
</svg>